
        <svg xmlns="http://www.w3.org/2000/svg" xmlns:xlink="http://www.w3.org/1999/xlink" version="1.1" width="3206.8965517241377" height="3048.8123841555725" viewBox="0 0 3206.8965517241377 3048.8123841555725">
			
			<g transform="scale(10.344827586206895) translate(10, 10)">
				<defs id="SvgjsDefs14134"/><g id="SvgjsG14135" featureKey="symbolFeature-0" transform="matrix(1.7999998855590893,0,0,1.7999998855590893,55.08580283573133,-35.997752380513994)" fill="#000"><g xmlns="http://www.w3.org/2000/svg"><g><path d="M71.842,38.928c-0.24-3.188-3.029-5.587-6.217-5.347c-3.19,0.242-5.589,3.031-5.349,6.218    c0.198,2.628,2.144,4.78,4.694,5.262l1.334,17.752c0.074,0.849,0.822,1.488,1.67,1.424c0.414-0.031,0.793-0.223,1.064-0.541    c0.27-0.316,0.4-0.717,0.367-1.127l-1.342-17.768C70.467,43.918,72.037,41.512,71.842,38.928z M65.852,36.608    c1.51-0.114,2.83,1.021,2.943,2.53c0.113,1.509-1.021,2.829-2.531,2.942s-2.83-1.021-2.943-2.53    C63.206,38.042,64.342,36.722,65.852,36.608z"/><path d="M82.086,45.149c-0.412-0.069-0.826,0.026-1.166,0.269c-0.338,0.242-0.562,0.6-0.627,1.005l-0.422,2.49    c-0.16,0.941-0.709,1.661-1.49,2l0.795-4.687c0.137-0.843-0.436-1.645-1.275-1.787c-0.41-0.07-0.824,0.026-1.168,0.27    c-0.338,0.244-0.559,0.602-0.623,1.004l-0.793,4.681c-0.627-0.578-0.91-1.438-0.748-2.379l0.424-2.5    c0.135-0.842-0.438-1.642-1.275-1.784c-0.412-0.07-0.824,0.025-1.164,0.268c-0.34,0.242-0.562,0.601-0.629,1.006L71.5,47.514    c-0.441,2.598,0.928,5.155,3.287,6.237l-2.979,17.551c-0.133,0.842,0.439,1.642,1.277,1.784c0.41,0.069,0.824-0.026,1.164-0.269    c0.338-0.242,0.561-0.6,0.627-1.005l2.977-17.569c2.545-0.28,4.648-2.245,5.082-4.811l0.424-2.496    C83.496,46.094,82.924,45.292,82.086,45.149z"/></g><path d="M52.334,54.759c-0.066,0-0.128,0.016-0.193,0.02c0.112-0.386,0.193-0.786,0.193-1.209c0-2.366-1.917-4.284-4.283-4.284   s-4.283,1.918-4.283,4.284c0,0.008,0.002,0.015,0.002,0.023c-1.637,0.095-3.004,1.149-3.551,2.618   c-0.089-0.008-0.176-0.027-0.267-0.027c-1.58,0-2.863,1.282-2.863,2.863s1.283,2.863,2.863,2.863c0,1.316,1.067,2.383,2.384,2.383   c0.431,0,0.828-0.124,1.178-0.323c0.153,0.112,0.316,0.209,0.49,0.29c0,0.01-0.002,0.019-0.002,0.029   c0,1.447,1.172,2.62,2.618,2.62c1.447,0,2.621-1.173,2.621-2.62c0-0.155-0.02-0.306-0.047-0.454   c0.421,0.286,0.927,0.454,1.473,0.454c1.446,0,2.619-1.173,2.619-2.62c0-0.46-0.129-0.885-0.337-1.261   c1.282-0.282,2.244-1.421,2.244-2.789C55.193,56.04,53.914,54.759,52.334,54.759z"/><circle cx="34.236" cy="60.477" r="1.19"/><circle cx="57.811" cy="54.76" r="1.423"/><circle cx="55.193" cy="49.286" r="1.194"/><circle cx="59.234" cy="48.091" r="1.196"/><path d="M54.246,44.59c4.286-0.955-0.953-4.045-2.618-3.093c-1.664,0.953-3.098,0.953-7.146-1.19   c-4.047-2.144-5.716-0.477-10.479,2.857c-4.762,3.334,0.953,6.668,0.953,6.668c1.429,4.048,7.381-1.905,9.525-3.811   C46.628,44.116,49.959,45.545,54.246,44.59z"/><path d="M63.314,63.039l-0.265-3.517c-0.811,1.398-1.794,2.723-2.99,3.92c-7.423,7.423-19.458,7.423-26.88,0   c-7.424-7.425-7.424-19.459,0-26.881c6.887-6.888,17.74-7.373,25.2-1.478c0.402-0.718,0.904-1.374,1.485-1.953   c-8.423-6.628-20.655-6.073-28.421,1.694c-8.382,8.381-8.382,21.969,0,30.352c8.38,8.381,21.97,8.381,30.352,0   c0.569-0.569,1.092-1.167,1.584-1.78C63.359,63.275,63.325,63.161,63.314,63.039z"/><g><path d="M69.512,66.91c-0.416,0.163-0.852,0.285-1.311,0.319c-0.115,0.008-0.229,0.013-0.344,0.013    c-1.256,0-2.402-0.537-3.234-1.391c-0.336,0.38-0.66,0.768-1.023,1.131c-9.379,9.378-24.585,9.378-33.963,0    c-9.379-9.38-9.379-24.584,0-33.963c8.861-8.861,22.919-9.338,32.354-1.453c1.028-0.539,2.179-0.883,3.409-0.977    c0.223-0.017,0.445-0.025,0.664-0.025c1.576,0,3.061,0.432,4.35,1.174c-0.787-1.024-1.643-2.014-2.58-2.953    c-11.717-11.715-30.713-11.715-42.428,0c-11.716,11.716-11.716,30.711,0,42.428c11.715,11.715,30.711,11.714,42.428-0.001    c0.4-0.4,0.783-0.811,1.156-1.227L69.512,66.91z"/></g></g></g><g id="SvgjsG14136" featureKey="nameFeature-0" transform="matrix(1.9973671726406235,0,0,1.9973671726406235,-6.791046672624124,104.67074890917166)" fill="#000"><path d="M13.86 12 c8.82 0 11.46 3.14 11.46 9.44 c0 6.32 -2.64 9.46 -11.46 9.46 l-4 0 l0 8.5 c0 0.36 -0.24 0.6 -0.6 0.6 l-5.26 0 c-0.36 0 -0.6 -0.24 -0.6 -0.6 l0 -26.8 c0 -0.36 0.24 -0.6 0.6 -0.6 l9.86 0 z M14.32 25.22 c3.18 0 4.82 -0.68 4.82 -3.78 c0 -3.06 -1.64 -3.76 -4.82 -3.76 l-4.46 0 l0 7.54 l4.46 0 z M50.617999999999995 17.68 l-6.34 0 l0 16.64 l6.34 0 c0.36 0 0.6 0.24 0.6 0.6 l0 4.48 c0 0.36 -0.24 0.6 -0.6 0.6 l-19.14 0 c-0.36 0 -0.6 -0.24 -0.6 -0.6 l0 -4.48 c0 -0.36 0.24 -0.6 0.6 -0.6 l6.34 0 l0 -16.64 l-6.34 0 c-0.36 0 -0.6 -0.24 -0.6 -0.6 l0 -4.48 c0 -0.36 0.24 -0.6 0.6 -0.6 l19.14 0 c0.36 0 0.6 0.24 0.6 0.6 l0 4.48 c0 0.36 -0.24 0.6 -0.6 0.6 z M80.916 12 c0.36 0 0.6 0.24 0.6 0.6 l0 26.8 c0 0.36 -0.24 0.6 -0.6 0.6 l-5.92 0 c-0.32 0 -0.56 -0.12 -0.72 -0.4 l-9.54 -17.14 l0 16.94 c0 0.36 -0.24 0.6 -0.6 0.6 l-5.26 0 c-0.36 0 -0.6 -0.24 -0.6 -0.6 l0 -26.8 c0 -0.36 0.24 -0.6 0.6 -0.6 l5.9 0 c0.32 0 0.56 0.12 0.72 0.4 l9.54 17.12 l0 -16.92 c0 -0.36 0.24 -0.6 0.6 -0.6 l5.28 0 z M102.69399999999999 40.52 c-7.92 0 -14.42 -6.4 -14.42 -14.4 c0 -8.04 6.5 -14.44 14.42 -14.44 c7.94 0 14.46 6.4 14.46 14.44 c0 8 -6.52 14.4 -14.46 14.4 z M102.69399999999999 34.26 c4.46 0 7.96 -3.58 7.96 -8.14 c0 -4.6 -3.5 -8.18 -7.96 -8.18 c-4.42 0 -7.92 3.58 -7.92 8.18 c0 4.56 3.5 8.14 7.92 8.14 z M148.072 12 c0.48 0 0.66 0.26 0.4 0.72 l-10.02 16.44 l0 10.24 c0 0.36 -0.24 0.6 -0.6 0.6 l-5.26 0 c-0.36 0 -0.6 -0.24 -0.6 -0.6 l0 -10.32 l-10.04 -16.36 c-0.28 -0.46 -0.08 -0.72 0.4 -0.72 l5.94 0 c0.32 0 0.54 0.12 0.72 0.4 l6.2 10.32 l6.22 -10.32 c0.18 -0.28 0.4 -0.4 0.72 -0.4 l5.92 0 z"/></g><g id="SvgjsG14137" featureKey="nameFeature-1" transform="matrix(1.6158869338947075,0,0,1.6158869338947075,-5.4940157293449925,177.15876013838235)" fill="#000"><path d="M21.54 34.32 c0.36 0 0.6 0.24 0.6 0.6 l0 4.48 c0 0.36 -0.24 0.6 -0.6 0.6 l-17.54 0 c-0.36 0 -0.6 -0.24 -0.6 -0.6 l0 -26.8 c0 -0.36 0.24 -0.6 0.6 -0.6 l17.5 0 c0.36 0 0.6 0.24 0.6 0.6 l0 4.48 c0 0.36 -0.24 0.6 -0.6 0.6 l-11.64 0 l0 5.38 l10.66 0 c0.36 0 0.6 0.24 0.6 0.6 l0 4.48 c0 0.36 -0.24 0.6 -0.6 0.6 l-10.66 0 l0 5.58 l11.68 0 z M49.117999999999995 39.28 c0.24 0.46 0.08 0.72 -0.4 0.72 l-5.54 0 c-0.32 0 -0.56 -0.12 -0.72 -0.4 l-4.08 -7.48 l-4.08 7.48 c-0.16 0.28 -0.4 0.4 -0.72 0.4 l-5.56 0 c-0.48 0 -0.64 -0.26 -0.4 -0.72 l7.32 -13.46 l-7.14 -13.1 c-0.24 -0.46 -0.08 -0.72 0.4 -0.72 l5.56 0 c0.32 0 0.56 0.12 0.72 0.4 l3.9 7.14 l3.88 -7.14 c0.16 -0.28 0.4 -0.4 0.72 -0.4 l5.56 0 c0.48 0 0.64 0.26 0.4 0.72 l-7.14 13.12 z M65.756 12 c8.82 0 11.46 3.14 11.46 9.44 c0 6.32 -2.64 9.46 -11.46 9.46 l-4 0 l0 8.5 c0 0.36 -0.24 0.6 -0.6 0.6 l-5.26 0 c-0.36 0 -0.6 -0.24 -0.6 -0.6 l0 -26.8 c0 -0.36 0.24 -0.6 0.6 -0.6 l9.86 0 z M66.21600000000001 25.22 c3.18 0 4.82 -0.68 4.82 -3.78 c0 -3.06 -1.64 -3.76 -4.82 -3.76 l-4.46 0 l0 7.54 l4.46 0 z M100.054 30.060000000000002 l4.88 9.24 c0.22 0.42 -0.02 0.7 -0.48 0.7 l-5.16 0 c-0.34 0 -0.54 -0.14 -0.7 -0.46 l-4.38 -8.64 l-0.48 0 l-4 0 l0 8.5 c0 0.36 -0.24 0.6 -0.6 0.6 l-5.26 0 c-0.36 0 -0.6 -0.24 -0.6 -0.6 l0 -26.8 c0 -0.36 0.24 -0.6 0.6 -0.6 l9.86 0 c8.82 0 11.46 3.14 11.46 9.44 c0 4.44 -1.3 7.3 -5.14 8.62 z M89.734 17.68 l0 7.54 l4.46 0 c3.18 0 4.82 -0.68 4.82 -3.78 c0 -3.06 -1.64 -3.76 -4.82 -3.76 l-4.46 0 z M129.492 34.32 c0.36 0 0.6 0.24 0.6 0.6 l0 4.48 c0 0.36 -0.24 0.6 -0.6 0.6 l-17.54 0 c-0.36 0 -0.6 -0.24 -0.6 -0.6 l0 -26.8 c0 -0.36 0.24 -0.6 0.6 -0.6 l17.5 0 c0.36 0 0.6 0.24 0.6 0.6 l0 4.48 c0 0.36 -0.24 0.6 -0.6 0.6 l-11.64 0 l0 5.38 l10.66 0 c0.36 0 0.6 0.24 0.6 0.6 l0 4.48 c0 0.36 -0.24 0.6 -0.6 0.6 l-10.66 0 l0 5.58 l11.68 0 z M145.93 23.06 c5.26 0.98 10.8 2.82 10.8 8.96 c0 5.98 -3.6 8.58 -10.66 8.58 c-6.58 0 -9.82 -2.24 -10.32 -7.84 c-0.04 -0.4 0.2 -0.66 0.56 -0.66 l4.82 0 c0.36 0 0.5 0.22 0.6 0.54 c0.52 1.44 1.8 2.14 4.34 2.14 c2.68 0 4.34 -0.76 4.34 -2.54 c0 -1.86 -0.6 -2.86 -4.48 -3.62 c-4.96 -0.98 -9.76 -3.04 -9.76 -8.68 c0 -5.16 3.14 -8.28 9.76 -8.28 c5.9 0 9.42 2.18 9.96 7.58 c0.04 0.4 -0.2 0.72 -0.56 0.72 l-4.46 0 c-0.36 0 -0.5 -0.28 -0.6 -0.6 c-0.38 -1.16 -1.64 -1.94 -4.24 -1.94 c-2.38 0 -3.58 1.04 -3.58 2.52 c0 1.2 -0.08 2.44 3.48 3.12 z M172.068 23.06 c5.26 0.98 10.8 2.82 10.8 8.96 c0 5.98 -3.6 8.58 -10.66 8.58 c-6.58 0 -9.82 -2.24 -10.32 -7.84 c-0.04 -0.4 0.2 -0.66 0.56 -0.66 l4.82 0 c0.36 0 0.5 0.22 0.6 0.54 c0.52 1.44 1.8 2.14 4.34 2.14 c2.68 0 4.34 -0.76 4.34 -2.54 c0 -1.86 -0.6 -2.86 -4.48 -3.62 c-4.96 -0.98 -9.76 -3.04 -9.76 -8.68 c0 -5.16 3.14 -8.28 9.76 -8.28 c5.9 0 9.42 2.18 9.96 7.58 c0.04 0.4 -0.2 0.72 -0.56 0.72 l-4.46 0 c-0.36 0 -0.5 -0.28 -0.6 -0.6 c-0.38 -1.16 -1.64 -1.94 -4.24 -1.94 c-2.38 0 -3.58 1.04 -3.58 2.52 c0 1.2 -0.08 2.44 3.48 3.12 z"/></g><g id="SvgjsG14138" featureKey="sloganFeature-0" transform="matrix(0.8770191305953696,0,0,0.8770191305953696,3.3988263432266077,257.0068571484968)" fill="#000"><path d="M10.146 8.467 l-5.3711 0 l0 3.2031 l4.6387 0 l0 2.5488 l-4.6387 0 l0 5.7813 l-2.9492 0 l0 -14.111 l8.3203 0 l0 2.5781 z M22.1826453125 20 l0 -14.111 l2.9297 0 l0 14.111 l-2.9297 0 z M41.22074375 17.4121 l4.4238 0 l0 2.5879 l-7.3535 0 l0 -14.111 l2.9297 0 l0 11.523 z M57.4170203125 20 l0 -14.111 l2.9297 0 l0 14.111 l-2.9297 0 z M79.39451875 5.888999999999999 c2.7637 0 4.4824 2.0508 4.4824 4.5605 c0 2.5684 -1.7188 4.4922 -4.4824 4.4922 l-2.9395 0 l0 5.0586 l-2.9297 0 l0 -14.111 l5.8691 0 z M78.90621875 12.4902 c1.4648 0 2.1484 -0.81055 2.1484 -2.0801 c0 -1.2207 -0.68359 -2.0703 -2.1484 -2.0703 l-2.4512 0 l0 4.1504 l2.4512 0 z M95.8740515625 20 l0 -14.111 l2.9297 0 l0 14.111 l-2.9297 0 z M121.62125 5.888999999999999 l2.9199 0 l0 14.111 l-3.3887 0 l-6.25 -10.088 l0 10.088 l-2.9199 0 l0 -14.111 l3.3496 0 l6.2891 10.029 l0 -10.029 z M143.9795203125 20.19531 c-4.1504 0 -7.2168 -2.832 -7.2168 -7.2559 c0 -4.4336 3.0664 -7.2461 7.2168 -7.2461 c4.1406 0 7.207 2.8125 7.207 7.2461 c0 4.4238 -3.0664 7.2559 -7.207 7.2559 z M143.9795203125 17.5098 c2.4316 0 4.2969 -1.709 4.2969 -4.5703 c0 -2.8516 -1.8652 -4.5508 -4.2969 -4.5508 s-4.2969 1.6992 -4.2969 4.5508 c0 2.8613 1.8652 4.5703 4.2969 4.5703 z M186.4992421875 20 l-4.3848 -5.9961 l-1.0352 0 l0 5.9961 l-2.9297 0 l0 -14.111 l2.9297 0 l0 5.5469 l0.99609 0 l4.4238 -5.5469 l3.5742 0 l-5.4688 6.748 l5.6348 7.3633 l-3.7402 0 z M201.875028125 20 l0 -14.111 l2.9297 0 l0 14.111 l-2.9297 0 z M226.1672265625 5.888999999999999 l0 2.5781 l-3.3496 0 l0 11.533 l-2.9004 0 l0 -11.533 l-3.3691 0 l0 -2.5781 l9.6191 0 z M244.16995 20.19531 c-4.1504 0 -7.2168 -2.8223 -7.2168 -7.2559 s3.0664 -7.2461 7.2168 -7.2461 c3.1445 0 5.6641 1.6113 6.6699 4.2871 l-2.7344 0.99609 c-0.625 -1.6406 -2.1191 -2.5879 -3.9355 -2.5879 c-2.4316 0 -4.2969 1.6992 -4.2969 4.5508 s1.8652 4.5605 4.2969 4.5605 c1.8164 0 3.3105 -0.95703 3.9355 -2.5977 l2.7344 0.99609 c-1.0059 2.6758 -3.5254 4.2969 -6.6699 4.2969 z M271.6751484375 5.888999999999999 l2.9297 0 l0 14.111 l-2.9297 0 l0 -5.8008 l-5.9668 0 l0 5.8008 l-2.9297 0 l0 -14.111 l2.9297 0 l0 5.7617 l5.9668 0 l0 -5.7617 z M295.976796875 8.467 l-5.2344 0 l0 3.2031 l4.6387 0 l0 2.5488 l-4.6387 0 l0 3.1934 l5.2344 0 l0 2.5879 l-8.1836 0 l0 -14.111 l8.1836 0 l0 2.5781 z M318.1691015625 5.888999999999999 l2.9199 0 l0 14.111 l-3.3887 0 l-6.25 -10.088 l0 10.088 l-2.9199 0 l0 -14.111 l3.3496 0 l6.2891 10.029 l0 -10.029 z"/></g>
			</g>
		</svg>
	